Aldone-Bold.ufo
<glyph name="parenright" format="1">
  <advance width="332"/>
  <unicode hex="0029"/>
  <outline>
    <contour>
      <point x="272" y="661"/>
      <point x="252" y="704"/>
      <point x="76" y="704" type="curve" smooth="yes"/>
      <point x="67" y="704"/>
      <point x="60" y="698"/>
      <point x="60" y="689" type="curve" smooth="yes"/>
      <point x="60" y="588" type="line" smooth="yes"/>
      <point x="60" y="580"/>
      <point x="66" y="573"/>
      <point x="75" y="573" type="curve" smooth="yes"/>
      <point x="133" y="573"/>
      <point x="140" y="543"/>
      <point x="140" y="277" type="curve" smooth="yes"/>
      <point x="140" y="11"/>
      <point x="133" y="-19"/>
      <point x="75" y="-19" type="curve" smooth="yes"/>
      <point x="66" y="-19"/>
      <point x="60" y="-26"/>
      <point x="60" y="-34" type="curve" smooth="yes"/>
      <point x="60" y="-135" type="line" smooth="yes"/>
      <point x="60" y="-144"/>
      <point x="67" y="-150"/>
      <point x="76" y="-150" type="curve" smooth="yes"/>
      <point x="252" y="-150"/>
      <point x="272" y="-107"/>
      <point x="272" y="277" type="curve" smooth="yes"/>
    </contour>
  </outline>
</glyph>
<glyph name="period" format="1">
  <advance width="252"/>
  <unicode hex="002E"/>
  <outline>
    <contour>
      <point x="60" y="15" type="line" smooth="yes"/>
      <point x="60" y="7"/>
      <point x="67" y="0"/>
      <point x="75" y="0" type="curve" smooth="yes"/>
      <point x="177" y="0" type="line" smooth="yes"/>
      <point x="185" y="0"/>
      <point x="192" y="7"/>
      <point x="192" y="15" type="curve" smooth="yes"/>
      <point x="192" y="104" type="line" smooth="yes"/>
      <point x="192" y="112"/>
      <point x="185" y="119"/>
      <point x="177" y="119" type="curve" smooth="yes"/>
      <point x="75" y="119" type="line" smooth="yes"/>
      <point x="67" y="119"/>
      <point x="60" y="112"/>
      <point x="60" y="104" type="curve" smooth="yes"/>
    </contour>
  </outline>
</glyph>
<glyph name="one" format="1">
  <advance width="429"/>
  <unicode hex="0031"/>
  <outline>
    <contour>
      <point x="329" y="685" type="line" smooth="yes"/>
      <point x="329" y="693"/>
      <point x="322" y="700"/>
      <point x="314" y="700" type="curve"/>
      <point x="187" y="700" type="line"/>
      <point x="187" y="15" type="line" smooth="yes"/>
      <point x="187" y="7"/>
      <point x="194" y="0"/>
      <point x="202" y="0" type="curve" smooth="yes"/>
      <point x="314" y="0" type="line" smooth="yes"/>
      <point x="322" y="0"/>
      <point x="329" y="7"/>
      <point x="329" y="15" type="curve" smooth="yes"/>
    </contour>
    <contour>
      <point x="57" y="700"/>
      <point x="50" y="693"/>
      <point x="50" y="685" type="curve" smooth="yes"/>
      <point x="50" y="583" type="line" smooth="yes"/>
      <point x="50" y="575"/>
      <point x="57" y="568"/>
      <point x="65" y="568" type="curve" smooth="yes"/>
      <point x="187" y="568" type="line"/>
      <point x="187" y="700" type="line"/>
      <point x="65" y="700" type="line" smooth="yes"/>
    </contour>
  </outline>
</glyph>
<glyph name="two" format="1">
  <advance width="685"/>
  <unicode hex="0032"/>
  <outline>
    <contour>
      <point x="606" y="0" type="line" smooth="yes"/>
      <point x="615" y="0"/>
      <point x="621" y="6"/>
      <point x="621" y="15" type="curve" smooth="yes"/>
      <point x="621" y="117" type="line" smooth="yes"/>
      <point x="621" y="126"/>
      <point x="615" y="132"/>
      <point x="606" y="132" type="curve" smooth="yes"/>
      <point x="223" y="132" type="line" smooth="yes"/>
      <point x="214" y="132"/>
      <point x="215" y="139"/>
      <point x="215" y="150" type="curve" smooth="yes"/>
      <point x="215" y="347"/>
      <point x="625" y="165"/>
      <point x="625" y="489" type="curve" smooth="yes"/>
      <point x="625" y="655"/>
      <point x="560" y="704"/>
      <point x="341" y="704" type="curve" smooth="yes"/>
      <point x="124" y="704"/>
      <point x="60" y="648"/>
      <point x="60" y="457" type="curve" smooth="yes"/>
      <point x="60" y="444"/>
      <point x="69" y="434"/>
      <point x="81" y="434" type="curve" smooth="yes"/>
      <point x="182" y="434" type="line" smooth="yes"/>
      <point x="194" y="434"/>
      <point x="202" y="443"/>
      <point x="202" y="454" type="curve" smooth="yes"/>
      <point x="202" y="545"/>
      <point x="234" y="572"/>
      <point x="341" y="572" type="curve" smooth="yes"/>
      <point x="451" y="572"/>
      <point x="483" y="553"/>
      <point x="483" y="489" type="curve" smooth="yes"/>
      <point x="483" y="298"/>
      <point x="64" y="487"/>
      <point x="64" y="132" type="curve" smooth="yes"/>
      <point x="64" y="15" type="line" smooth="yes"/>
      <point x="64" y="6"/>
      <point x="70" y="0"/>
      <point x="79" y="0" type="curve" smooth="yes"/>
    </contour>
  </outline>
</glyph>
<glyph name="four" format="1">
  <advance width="687"/>
  <unicode hex="0034"/>
  <outline>
    <contour>
      <point x="627" y="257" type="line" smooth="yes"/>
      <point x="627" y="266"/>
      <point x="621" y="272"/>
      <point x="612" y="272" type="curve" smooth="yes"/>
      <point x="234" y="272" type="line" smooth="yes"/>
      <point x="225" y="272"/>
      <point x="218" y="279"/>
      <point x="226" y="290" type="curve" smooth="yes"/>
      <point x="506" y="667" type="line"/>
      <point x="506" y="700" type="line"/>
      <point x="372" y="700" type="line" smooth="yes"/>
      <point x="364" y="700"/>
      <point x="361" y="697"/>
      <point x="355" y="689" type="curve" smooth="yes"/>
      <point x="77" y="310" type="line" smooth="yes"/>
      <point x="54" y="278"/>
      <point x="61" y="264"/>
      <point x="61" y="237" type="curve" smooth="yes"/>
      <point x="61" y="155" type="line" smooth="yes"/>
      <point x="61" y="146"/>
      <point x="67" y="140"/>
      <point x="76" y="140" type="curve" smooth="yes"/>
      <point x="612" y="140" type="line" smooth="yes"/>
      <point x="621" y="140"/>
      <point x="627" y="146"/>
      <point x="627" y="155" type="curve" smooth="yes"/>
    </contour>
    <contour>
      <point x="533" y="685" type="line" smooth="yes"/>
      <point x="533" y="693"/>
      <point x="526" y="700"/>
      <point x="518" y="700" type="curve" smooth="yes"/>
      <point x="406" y="700" type="line" smooth="yes"/>
      <point x="398" y="700"/>
      <point x="391" y="693"/>
      <point x="391" y="685" type="curve" smooth="yes"/>
      <point x="391" y="15" type="line" smooth="yes"/>
      <point x="391" y="7"/>
      <point x="398" y="0"/>
      <point x="406" y="0" type="curve" smooth="yes"/>
      <point x="518" y="0" type="line" smooth="yes"/>
      <point x="526" y="0"/>
      <point x="533" y="7"/>
      <point x="533" y="15" type="curve" smooth="yes"/>
    </contour>
  </outline>
</glyph>
<glyph name="six" format="1">
  <advance width="685"/>
  <unicode hex="0036"/>
  <outline>
    <contour>
      <point x="60" y="36"/>
      <point x="113" y="-4"/>
      <point x="344" y="-4" type="curve" smooth="yes"/>
      <point x="573" y="-4"/>
      <point x="625" y="36"/>
      <point x="625" y="211" type="curve" smooth="yes"/>
      <point x="625" y="386"/>
      <point x="573" y="426"/>
      <point x="344" y="426" type="curve" smooth="yes"/>
      <point x="241" y="426"/>
      <point x="227" y="420"/>
      <point x="202" y="362" type="curve"/>
      <point x="202" y="489" type="line" smooth="yes"/>
      <point x="202" y="564"/>
      <point x="216" y="572"/>
      <point x="344" y="572" type="curve" smooth="yes"/>
      <point x="465" y="572"/>
      <point x="479" y="567"/>
      <point x="479" y="520" type="curve" smooth="yes"/>
      <point x="479" y="509"/>
      <point x="487" y="500"/>
      <point x="499" y="500" type="curve" smooth="yes"/>
      <point x="600" y="500" type="line" smooth="yes"/>
      <point x="612" y="500"/>
      <point x="621" y="510"/>
      <point x="621" y="523" type="curve" smooth="yes"/>
      <point x="621" y="670"/>
      <point x="569" y="704"/>
      <point x="344" y="704" type="curve" smooth="yes"/>
      <point x="113" y="704"/>
      <point x="60" y="664"/>
      <point x="60" y="489" type="curve" smooth="yes"/>
      <point x="60" y="211" type="line" smooth="yes"/>
    </contour>
    <contour>
      <point x="202" y="286"/>
      <point x="216" y="294"/>
      <point x="344" y="294" type="curve" smooth="yes"/>
      <point x="469" y="294"/>
      <point x="483" y="286"/>
      <point x="483" y="211" type="curve" smooth="yes"/>
      <point x="483" y="136"/>
      <point x="469" y="128"/>
      <point x="344" y="128" type="curve" smooth="yes"/>
      <point x="216" y="128"/>
      <point x="202" y="136"/>
      <point x="202" y="211" type="curve" smooth="yes"/>
    </contour>
  </outline>
</glyph>
<glyph name="seven" format="1">
  <advance width="638"/>
  <unicode hex="0037"/>
  <outline>
    <contour>
      <point x="60" y="583" type="line" smooth="yes"/>
      <point x="60" y="574"/>
      <point x="66" y="568"/>
      <point x="75" y="568" type="curve" smooth="yes"/>
      <point x="415" y="568" type="line" smooth="yes"/>
      <point x="424" y="568"/>
      <point x="428" y="561"/>
      <point x="423" y="550" type="curve" smooth="yes"/>
      <point x="162" y="18" type="line" smooth="yes"/>
      <point x="157" y="8"/>
      <point x="162" y="0"/>
      <point x="173" y="0" type="curve" smooth="yes"/>
      <point x="297" y="0" type="line" smooth="yes"/>
      <point x="305" y="0"/>
      <point x="310" y="3"/>
      <point x="314" y="11" type="curve" smooth="yes"/>
      <point x="562" y="530" type="line" smooth="yes"/>
      <point x="578" y="563"/>
      <point x="578" y="576"/>
      <point x="578" y="603" type="curve" smooth="yes"/>
      <point x="578" y="685" type="line" smooth="yes"/>
      <point x="578" y="694"/>
      <point x="572" y="700"/>
      <point x="563" y="700" type="curve" smooth="yes"/>
      <point x="75" y="700" type="line" smooth="yes"/>
      <point x="66" y="700"/>
      <point x="60" y="694"/>
      <point x="60" y="685" type="curve" smooth="yes"/>
    </contour>
  </outline>
</glyph>
<glyph name="colon" format="1">
  <advance width="252"/>
  <unicode hex="003A"/>
  <outline>
    <contour>
      <point x="60" y="74" type="line" smooth="yes"/>
      <point x="60" y="66"/>
      <point x="67" y="59"/>
      <point x="75" y="59" type="curve" smooth="yes"/>
      <point x="177" y="59" type="line" smooth="yes"/>
      <point x="185" y="59"/>
      <point x="192" y="66"/>
      <point x="192" y="74" type="curve" smooth="yes"/>
      <point x="192" y="163" type="line" smooth="yes"/>
      <point x="192" y="171"/>
      <point x="185" y="178"/>
      <point x="177" y="178" type="curve" smooth="yes"/>
      <point x="75" y="178" type="line" smooth="yes"/>
      <point x="67" y="178"/>
      <point x="60" y="171"/>
      <point x="60" y="163" type="curve" smooth="yes"/>
    </contour>
    <contour>
      <point x="60" y="337" type="line" smooth="yes"/>
      <point x="60" y="329"/>
      <point x="67" y="322"/>
      <point x="75" y="322" type="curve" smooth="yes"/>
      <point x="177" y="322" type="line" smooth="yes"/>
      <point x="185" y="322"/>
      <point x="192" y="329"/>
      <point x="192" y="337" type="curve" smooth="yes"/>
      <point x="192" y="426" type="line" smooth="yes"/>
      <point x="192" y="434"/>
      <point x="185" y="441"/>
      <point x="177" y="441" type="curve" smooth="yes"/>
      <point x="75" y="441" type="line" smooth="yes"/>
      <point x="67" y="441"/>
      <point x="60" y="434"/>
      <point x="60" y="426" type="curve" smooth="yes"/>
    </contour>
  </outline>
</glyph>
<glyph name="I" format="1">
  <advance width="262"/>
  <unicode hex="0049"/>
  <outline>
    <contour>
      <point x="202" y="685" type="line" smooth="yes"/>
      <point x="202" y="693"/>
      <point x="195" y="700"/>
      <point x="187" y="700" type="curve" smooth="yes"/>
      <point x="75" y="700" type="line" smooth="yes"/>
      <point x="67" y="700"/>
      <point x="60" y="693"/>
      <point x="60" y="685" type="curve" smooth="yes"/>
      <point x="60" y="15" type="line" smooth="yes"/>
      <point x="60" y="7"/>
      <point x="67" y="0"/>
      <point x="75" y="0" type="curve" smooth="yes"/>
      <point x="187" y="0" type="line" smooth="yes"/>
      <point x="195" y="0"/>
      <point x="202" y="7"/>
      <point x="202" y="15" type="curve" smooth="yes"/>
    </contour>
  </outline>
</glyph>
<glyph name="L" format="1">
  <advance width="595"/>
  <unicode hex="004C"/>
  <outline>
    <contour>
      <point x="212" y="685" type="line" smooth="yes"/>
      <point x="212" y="693"/>
      <point x="205" y="700"/>
      <point x="197" y="700" type="curve" smooth="yes"/>
      <point x="85" y="700" type="line" smooth="yes"/>
      <point x="77" y="700"/>
      <point x="70" y="693"/>
      <point x="70" y="685" type="curve" smooth="yes"/>
      <point x="70" y="15" type="line" smooth="yes"/>
      <point x="70" y="7"/>
      <point x="77" y="0"/>
      <point x="85" y="0" type="curve" smooth="yes"/>
      <point x="197" y="0" type="line" smooth="yes"/>
      <point x="205" y="0"/>
      <point x="212" y="7"/>
      <point x="212" y="15" type="curve" smooth="yes"/>
    </contour>
    <contour>
      <point x="190" y="132"/>
      <point x="183" y="125"/>
      <point x="183" y="117" type="curve" smooth="yes"/>
      <point x="183" y="15" type="line" smooth="yes"/>
      <point x="183" y="7"/>
      <point x="190" y="0"/>
      <point x="198" y="0" type="curve" smooth="yes"/>
      <point x="530" y="0" type="line" smooth="yes"/>
      <point x="538" y="0"/>
      <point x="545" y="7"/>
      <point x="545" y="15" type="curve" smooth="yes"/>
      <point x="545" y="117" type="line" smooth="yes"/>
      <point x="545" y="125"/>
      <point x="538" y="132"/>
      <point x="530" y="132" type="curve" smooth="yes"/>
      <point x="198" y="132" type="line" smooth="yes"/>
    </contour>
  </outline>
</glyph>
<glyph name="O" format="1">
  <advance width="736"/>
  <unicode hex="004F"/>
  <outline>
    <contour>
      <point x="619" y="-4"/>
      <point x="676" y="62"/>
      <point x="676" y="354" type="curve" smooth="yes"/>
      <point x="676" y="639"/>
      <point x="619" y="704"/>
      <point x="368" y="704" type="curve" smooth="yes"/>
      <point x="117" y="704"/>
      <point x="60" y="639"/>
      <point x="60" y="354" type="curve" smooth="yes"/>
      <point x="60" y="62"/>
      <point x="117" y="-4"/>
      <point x="368" y="-4" type="curve" smooth="yes"/>
    </contour>
    <contour>
      <point x="233" y="128"/>
      <point x="202" y="170"/>
      <point x="202" y="354" type="curve" smooth="yes"/>
      <point x="202" y="532"/>
      <point x="233" y="572"/>
      <point x="368" y="572" type="curve" smooth="yes"/>
      <point x="503" y="572"/>
      <point x="534" y="532"/>
      <point x="534" y="354" type="curve" smooth="yes"/>
      <point x="534" y="170"/>
      <point x="503" y="128"/>
      <point x="368" y="128" type="curve" smooth="yes"/>
    </contour>
  </outline>
</glyph>
<glyph name="T" format="1">
  <advance width="602"/>
  <unicode hex="0054"/>
  <outline>
    <contour>
      <point x="377" y="685" type="line" smooth="yes"/>
      <point x="377" y="693"/>
      <point x="370" y="700"/>
      <point x="362" y="700" type="curve" smooth="yes"/>
      <point x="250" y="700" type="line" smooth="yes"/>
      <point x="242" y="700"/>
      <point x="235" y="693"/>
      <point x="235" y="685" type="curve" smooth="yes"/>
      <point x="235" y="15" type="line" smooth="yes"/>
      <point x="235" y="7"/>
      <point x="242" y="0"/>
      <point x="250" y="0" type="curve" smooth="yes"/>
      <point x="362" y="0" type="line" smooth="yes"/>
      <point x="370" y="0"/>
      <point x="377" y="7"/>
      <point x="377" y="15" type="curve" smooth="yes"/>
    </contour>
    <contour>
      <point x="557" y="568" type="line" smooth="yes"/>
      <point x="565" y="568"/>
      <point x="572" y="575"/>
      <point x="572" y="583" type="curve" smooth="yes"/>
      <point x="572" y="685" type="line" smooth="yes"/>
      <point x="572" y="693"/>
      <point x="565" y="700"/>
      <point x="557" y="700" type="curve" smooth="yes"/>
      <point x="45" y="700" type="line" smooth="yes"/>
      <point x="37" y="700"/>
      <point x="30" y="693"/>
      <point x="30" y="685" type="curve" smooth="yes"/>
      <point x="30" y="583" type="line" smooth="yes"/>
      <point x="30" y="575"/>
      <point x="37" y="568"/>
      <point x="45" y="568" type="curve" smooth="yes"/>
    </contour>
  </outline>
</glyph>
<glyph name="V" format="1">
  <advance width="691"/>
  <unicode hex="0056"/>
  <outline>
    <contour>
      <point x="251" y="15" type="line"/>
      <point x="253" y="7"/>
      <point x="258" y="0"/>
      <point x="266" y="0" type="curve" smooth="yes"/>
      <point x="435" y="0" type="line" smooth="yes"/>
      <point x="443" y="0"/>
      <point x="448" y="7"/>
      <point x="450" y="15" type="curve"/>
      <point x="660" y="685" type="line"/>
      <point x="663" y="697"/>
      <point x="660" y="700"/>
      <point x="645" y="700" type="curve" smooth="yes"/>
      <point x="543" y="700" type="line" smooth="yes"/>
      <point x="525" y="700"/>
      <point x="521" y="697"/>
      <point x="518" y="685" type="curve"/>
      <point x="359" y="163" type="line" smooth="yes"/>
      <point x="350" y="133"/>
      <point x="349" y="133"/>
      <point x="340" y="163" type="curve" smooth="yes"/>
      <point x="173" y="685" type="line"/>
      <point x="170" y="697"/>
      <point x="166" y="700"/>
      <point x="148" y="700" type="curve" smooth="yes"/>
      <point x="46" y="700" type="line" smooth="yes"/>
      <point x="31" y="700"/>
      <point x="28" y="697"/>
      <point x="31" y="685" type="curve"/>
    </contour>
  </outline>
</glyph>
<glyph name="c" format="1">
  <advance width="576"/>
  <unicode hex="0063"/>
  <outline>
    <contour>
      <point x="482" y="-4"/>
      <point x="526" y="29"/>
      <point x="526" y="171" type="curve" smooth="yes"/>
      <point x="526" y="180"/>
      <point x="520" y="187"/>
      <point x="511" y="187" type="curve" smooth="yes"/>
      <point x="409" y="187" type="line" smooth="yes"/>
      <point x="401" y="187"/>
      <point x="394" y="181"/>
      <point x="394" y="173" type="curve" smooth="yes"/>
      <point x="394" y="123"/>
      <point x="383" y="117"/>
      <point x="288" y="117" type="curve" smooth="yes"/>
      <point x="193" y="117"/>
      <point x="182" y="130"/>
      <point x="182" y="250" type="curve" smooth="yes"/>
      <point x="182" y="370"/>
      <point x="193" y="383"/>
      <point x="288" y="383" type="curve" smooth="yes"/>
      <point x="383" y="383"/>
      <point x="394" y="377"/>
      <point x="394" y="327" type="curve" smooth="yes"/>
      <point x="394" y="319"/>
      <point x="401" y="313"/>
      <point x="409" y="313" type="curve" smooth="yes"/>
      <point x="511" y="313" type="line" smooth="yes"/>
      <point x="520" y="313"/>
      <point x="526" y="320"/>
      <point x="526" y="329" type="curve" smooth="yes"/>
      <point x="526" y="471"/>
      <point x="482" y="504"/>
      <point x="288" y="504" type="curve" smooth="yes"/>
      <point x="94" y="504"/>
      <point x="50" y="457"/>
      <point x="50" y="250" type="curve" smooth="yes"/>
      <point x="50" y="43"/>
      <point x="94" y="-4"/>
      <point x="288" y="-4" type="curve" smooth="yes"/>
    </contour>
  </outline>
</glyph>
<glyph name="f" format="1">
  <advance width="372"/>
  <unicode hex="0066"/>
  <outline>
    <contour>
      <point x="217" y="0" type="line" smooth="yes"/>
      <point x="225" y="0"/>
      <point x="232" y="7"/>
      <point x="232" y="15" type="curve" smooth="yes"/>
      <point x="232" y="500" type="line" smooth="yes"/>
      <point x="232" y="600"/>
      <point x="256" y="629"/>
      <point x="337" y="629" type="curve" smooth="yes"/>
      <point x="346" y="629"/>
      <point x="352" y="636"/>
      <point x="352" y="644" type="curve" smooth="yes"/>
      <point x="352" y="735" type="line" smooth="yes"/>
      <point x="352" y="744"/>
      <point x="345" y="750"/>
      <point x="336" y="750" type="curve" smooth="yes"/>
      <point x="154" y="750"/>
      <point x="100" y="693"/>
      <point x="100" y="500" type="curve" smooth="yes"/>
      <point x="100" y="15" type="line" smooth="yes"/>
      <point x="100" y="7"/>
      <point x="107" y="0"/>
      <point x="115" y="0" type="curve" smooth="yes"/>
    </contour>
    <contour>
      <point x="317" y="379" type="line" smooth="yes"/>
      <point x="325" y="379"/>
      <point x="332" y="386"/>
      <point x="332" y="394" type="curve" smooth="yes"/>
      <point x="332" y="485" type="line" smooth="yes"/>
      <point x="332" y="493"/>
      <point x="325" y="500"/>
      <point x="317" y="500" type="curve" smooth="yes"/>
      <point x="55" y="500" type="line" smooth="yes"/>
      <point x="47" y="500"/>
      <point x="40" y="493"/>
      <point x="40" y="485" type="curve" smooth="yes"/>
      <point x="40" y="394" type="line" smooth="yes"/>
      <point x="40" y="386"/>
      <point x="47" y="379"/>
      <point x="55" y="379" type="curve" smooth="yes"/>
    </contour>
  </outline>
</glyph>
<glyph name="g" format="1">
  <advance width="597"/>
  <unicode hex="0067"/>
  <outline>
    <contour>
      <point x="537" y="485" type="line" smooth="yes"/>
      <point x="537" y="493"/>
      <point x="530" y="500"/>
      <point x="522" y="500" type="curve" smooth="yes"/>
      <point x="420" y="500" type="line" smooth="yes"/>
      <point x="412" y="500"/>
      <point x="404" y="493"/>
      <point x="405" y="485" type="curve" smooth="yes"/>
      <point x="415" y="422" type="line"/>
      <point x="405" y="428" type="line"/>
      <point x="405" y="72" type="line"/>
      <point x="415" y="78" type="line"/>
      <point x="405" y="20" type="line"/>
      <point x="405" y="0" type="line"/>
      <point x="537" y="0" type="line"/>
    </contour>
    <contour>
      <point x="389" y="482"/>
      <point x="338" y="504"/>
      <point x="268" y="504" type="curve" smooth="yes"/>
      <point x="100" y="504"/>
      <point x="50" y="446"/>
      <point x="50" y="250" type="curve" smooth="yes"/>
      <point x="50" y="54"/>
      <point x="100" y="-4"/>
      <point x="268" y="-4" type="curve" smooth="yes"/>
      <point x="359" y="-4"/>
      <point x="389" y="18"/>
      <point x="400" y="69" type="curve"/>
      <point x="405" y="72" type="line"/>
      <point x="405" y="166" type="line"/>
      <point x="405" y="119"/>
      <point x="375" y="117"/>
      <point x="288" y="117" type="curve" smooth="yes"/>
      <point x="202" y="117"/>
      <point x="182" y="142"/>
      <point x="182" y="250" type="curve" smooth="yes"/>
      <point x="182" y="358"/>
      <point x="202" y="383"/>
      <point x="288" y="383" type="curve" smooth="yes"/>
      <point x="375" y="383"/>
      <point x="405" y="381"/>
      <point x="405" y="334" type="curve"/>
      <point x="405" y="428" type="line"/>
      <point x="400" y="431" type="line"/>
    </contour>
    <contour>
      <point x="491" y="-254"/>
      <point x="537" y="-207"/>
      <point x="537" y="0" type="curve"/>
      <point x="405" y="0" type="line"/>
      <point x="405" y="-108"/>
      <point x="384" y="-133"/>
      <point x="291" y="-133" type="curve" smooth="yes"/>
      <point x="228" y="-133"/>
      <point x="210" y="-120"/>
      <point x="210" y="-92" type="curve" smooth="yes"/>
      <point x="210" y="-87"/>
      <point x="204" y="-83"/>
      <point x="198" y="-83" type="curve" smooth="yes"/>
      <point x="102" y="-83" type="line" smooth="yes"/>
      <point x="93" y="-83"/>
      <point x="86" y="-90"/>
      <point x="86" y="-99" type="curve" smooth="yes"/>
      <point x="86" y="-205"/>
      <point x="150" y="-254"/>
      <point x="291" y="-254" type="curve" smooth="yes"/>
    </contour>
  </outline>
</glyph>
<glyph name="q" format="1">
  <advance width="619"/>
  <unicode hex="0071"/>
  <outline>
    <contour>
      <point x="552" y="-250"/>
      <point x="559" y="-243"/>
      <point x="559" y="-235" type="curve" smooth="yes"/>
      <point x="559" y="485" type="line" smooth="yes"/>
      <point x="559" y="493"/>
      <point x="552" y="500"/>
      <point x="544" y="500" type="curve" smooth="yes"/>
      <point x="440" y="500" type="line" smooth="yes"/>
      <point x="432" y="500"/>
      <point x="424" y="493"/>
      <point x="425" y="485" type="curve" smooth="yes"/>
      <point x="435" y="422" type="line"/>
      <point x="425" y="428" type="line"/>
      <point x="425" y="72" type="line"/>
      <point x="435" y="78" type="line"/>
      <point x="425" y="20" type="line"/>
      <point x="425" y="-235" type="line" smooth="yes"/>
      <point x="425" y="-243"/>
      <point x="432" y="-250"/>
      <point x="440" y="-250" type="curve" smooth="yes"/>
      <point x="544" y="-250" type="line" smooth="yes"/>
    </contour>
    <contour>
      <point x="409" y="482"/>
      <point x="338" y="504"/>
      <point x="268" y="504" type="curve" smooth="yes"/>
      <point x="100" y="504"/>
      <point x="50" y="446"/>
      <point x="50" y="250" type="curve" smooth="yes"/>
      <point x="50" y="54"/>
      <point x="100" y="-4"/>
      <point x="268" y="-4" type="curve" smooth="yes"/>
      <point x="359" y="-4"/>
      <point x="409" y="18"/>
      <point x="420" y="69" type="curve"/>
      <point x="425" y="72" type="line"/>
      <point x="425" y="166" type="line"/>
      <point x="425" y="119"/>
      <point x="375" y="117"/>
      <point x="288" y="117" type="curve" smooth="yes"/>
      <point x="202" y="117"/>
      <point x="182" y="142"/>
      <point x="182" y="250" type="curve" smooth="yes"/>
      <point x="182" y="358"/>
      <point x="202" y="383"/>
      <point x="288" y="383" type="curve" smooth="yes"/>
      <point x="375" y="383"/>
      <point x="425" y="381"/>
      <point x="425" y="334" type="curve"/>
      <point x="425" y="428" type="line"/>
      <point x="420" y="431" type="line"/>
    </contour>
  </outline>
</glyph>
<glyph name="r" format="1">
  <advance width="453"/>
  <unicode hex="0072"/>
  <outline>
    <contour>
      <point x="60" y="20" type="line" smooth="yes"/>
      <point x="60" y="8"/>
      <point x="68" y="0"/>
      <point x="80" y="0" type="curve" smooth="yes"/>
      <point x="172" y="0" type="line" smooth="yes"/>
      <point x="184" y="0"/>
      <point x="192" y="8"/>
      <point x="192" y="20" type="curve" smooth="yes"/>
      <point x="192" y="398" type="line"/>
      <point x="182" y="392" type="line"/>
      <point x="192" y="480" type="line"/>
      <point x="193" y="493"/>
      <point x="184" y="500"/>
      <point x="172" y="500" type="curve" smooth="yes"/>
      <point x="80" y="500" type="line" smooth="yes"/>
      <point x="68" y="500"/>
      <point x="60" y="492"/>
      <point x="60" y="480" type="curve" smooth="yes"/>
    </contour>
    <contour>
      <point x="417" y="334" type="line" smooth="yes"/>
      <point x="426" y="334"/>
      <point x="433" y="341"/>
      <point x="433" y="350" type="curve" smooth="yes"/>
      <point x="433" y="462"/>
      <point x="404" y="504"/>
      <point x="327" y="504" type="curve" smooth="yes"/>
      <point x="249" y="504"/>
      <point x="210" y="478"/>
      <point x="198" y="401" type="curve"/>
      <point x="192" y="398" type="line"/>
      <point x="192" y="334" type="line"/>
      <point x="192" y="378"/>
      <point x="198" y="383"/>
      <point x="249" y="383" type="curve" smooth="yes"/>
      <point x="296" y="383"/>
      <point x="301" y="380"/>
      <point x="301" y="349" type="curve" smooth="yes"/>
      <point x="301" y="340"/>
      <point x="308" y="334"/>
      <point x="316" y="334" type="curve" smooth="yes"/>
    </contour>
  </outline>
</glyph>
<glyph name="w" format="1">
  <advance width="918"/>
  <unicode hex="0077"/>
  <outline>
    <contour>
      <point x="172" y="29" type="line" smooth="yes"/>
      <point x="181" y="3"/>
      <point x="186" y="0"/>
      <point x="215" y="0" type="curve" smooth="yes"/>
      <point x="333" y="0" type="line" smooth="yes"/>
      <point x="366" y="0"/>
      <point x="370" y="3"/>
      <point x="376" y="29" type="curve" smooth="yes"/>
      <point x="449" y="347" type="line" smooth="yes"/>
      <point x="452" y="361"/>
      <point x="465" y="361"/>
      <point x="468" y="347" type="curve" smooth="yes"/>
      <point x="539" y="29" type="line" smooth="yes"/>
      <point x="545" y="3"/>
      <point x="549" y="0"/>
      <point x="582" y="0" type="curve" smooth="yes"/>
      <point x="700" y="0" type="line" smooth="yes"/>
      <point x="729" y="0"/>
      <point x="734" y="3"/>
      <point x="743" y="29" type="curve" smooth="yes"/>
      <point x="897" y="477" type="line" smooth="yes"/>
      <point x="902" y="491"/>
      <point x="895" y="500"/>
      <point x="881" y="500" type="curve" smooth="yes"/>
      <point x="797" y="500" type="line" smooth="yes"/>
      <point x="772" y="500"/>
      <point x="769" y="498"/>
      <point x="764" y="482" type="curve" smooth="yes"/>
      <point x="650" y="141" type="line" smooth="yes"/>
      <point x="647" y="132"/>
      <point x="635" y="132"/>
      <point x="633" y="141" type="curve" smooth="yes"/>
      <point x="553" y="471" type="line" smooth="yes"/>
      <point x="547" y="497"/>
      <point x="544" y="500"/>
      <point x="520" y="500" type="curve" smooth="yes"/>
      <point x="398" y="500" type="line" smooth="yes"/>
      <point x="375" y="500"/>
      <point x="371" y="497"/>
      <point x="365" y="472" type="curve" smooth="yes"/>
      <point x="283" y="141" type="line" smooth="yes"/>
      <point x="281" y="132"/>
      <point x="269" y="132"/>
      <point x="266" y="141" type="curve" smooth="yes"/>
      <point x="154" y="481" type="line" smooth="yes"/>
      <point x="148" y="498"/>
      <point x="145" y="500"/>
      <point x="121" y="500" type="curve" smooth="yes"/>
      <point x="37" y="500" type="line" smooth="yes"/>
      <point x="23" y="500"/>
      <point x="16" y="491"/>
      <point x="21" y="477" type="curve" smooth="yes"/>
    </contour>
  </outline>
</glyph>
<glyph name="x" format="1">
  <advance width="558"/>
  <unicode hex="0078"/>
  <outline>
    <contour>
      <point x="204" y="251" type="line"/>
      <point x="35" y="482" type="line" smooth="yes"/>
      <point x="30" y="493"/>
      <point x="34" y="500"/>
      <point x="45" y="500" type="curve" smooth="yes"/>
      <point x="152" y="500" type="line" smooth="yes"/>
      <point x="172" y="500"/>
      <point x="175" y="498"/>
      <point x="185" y="482" type="curve" smooth="yes"/>
      <point x="279" y="344" type="line"/>
      <point x="373" y="482" type="line" smooth="yes"/>
      <point x="383" y="498"/>
      <point x="386" y="500"/>
      <point x="406" y="500" type="curve" smooth="yes"/>
      <point x="513" y="500" type="line" smooth="yes"/>
      <point x="524" y="500"/>
      <point x="528" y="493"/>
      <point x="523" y="482" type="curve" smooth="yes"/>
      <point x="354" y="251" type="line"/>
      <point x="525" y="18" type="line" smooth="yes"/>
      <point x="533" y="7"/>
      <point x="530" y="0"/>
      <point x="518" y="0" type="curve" smooth="yes"/>
      <point x="404" y="0" type="line" smooth="yes"/>
      <point x="386" y="0"/>
      <point x="383" y="2"/>
      <point x="373" y="18" type="curve" smooth="yes"/>
      <point x="279" y="157" type="line"/>
      <point x="185" y="18" type="line" smooth="yes"/>
      <point x="173" y="2"/>
      <point x="170" y="0"/>
      <point x="155" y="0" type="curve" smooth="yes"/>
      <point x="40" y="0" type="line" smooth="yes"/>
      <point x="28" y="0"/>
      <point x="25" y="7"/>
      <point x="33" y="18" type="curve" smooth="yes"/>
    </contour>
  </outline>
</glyph>
<glyph name="z" format="1">
  <advance width="518"/>
  <unicode hex="007A"/>
  <outline>
    <contour>
      <point x="60" y="394" type="line" smooth="yes"/>
      <point x="60" y="385"/>
      <point x="66" y="379"/>
      <point x="75" y="379" type="curve" smooth="yes"/>
      <point x="275" y="379" type="line" smooth="yes"/>
      <point x="298" y="379"/>
      <point x="299" y="377"/>
      <point x="283" y="361" type="curve" smooth="yes"/>
      <point x="78" y="148" type="line" smooth="yes"/>
      <point x="53" y="123"/>
      <point x="50" y="116"/>
      <point x="50" y="85" type="curve" smooth="yes"/>
      <point x="50" y="15" type="line" smooth="yes"/>
      <point x="50" y="6"/>
      <point x="56" y="0"/>
      <point x="65" y="0" type="curve" smooth="yes"/>
      <point x="453" y="0" type="line" smooth="yes"/>
      <point x="462" y="0"/>
      <point x="468" y="6"/>
      <point x="468" y="15" type="curve" smooth="yes"/>
      <point x="468" y="106" type="line" smooth="yes"/>
      <point x="468" y="115"/>
      <point x="462" y="121"/>
      <point x="453" y="121" type="curve" smooth="yes"/>
      <point x="244" y="121" type="line" smooth="yes"/>
      <point x="221" y="121"/>
      <point x="220" y="123"/>
      <point x="236" y="139" type="curve" smooth="yes"/>
      <point x="440" y="352" type="line" smooth="yes"/>
      <point x="465" y="377"/>
      <point x="468" y="382"/>
      <point x="468" y="404" type="curve" smooth="yes"/>
      <point x="468" y="485" type="line" smooth="yes"/>
      <point x="468" y="494"/>
      <point x="462" y="500"/>
      <point x="453" y="500" type="curve" smooth="yes"/>
      <point x="75" y="500" type="line" smooth="yes"/>
      <point x="66" y="500"/>
      <point x="60" y="494"/>
      <point x="60" y="485" type="curve" smooth="yes"/>
    </contour>
  </outline>
</glyph>
<glyph name="egrave" format="1">
  <advance width="600"/>
  <unicode hex="00E8"/>
  <outline>
    <contour>
      <point x="104" y="504"/>
      <point x="50" y="446"/>
      <point x="50" y="250" type="curve"/>
      <point x="182" y="250" type="line"/>
      <point x="182" y="372"/>
      <point x="192" y="386"/>
      <point x="286" y="386" type="curve" smooth="yes"/>
      <point x="398" y="386"/>
      <point x="409" y="379"/>
      <point x="409" y="316" type="curve" smooth="yes"/>
      <point x="409" y="309"/>
      <point x="403" y="304"/>
      <point x="394" y="304" type="curve" smooth="yes"/>
      <point x="157" y="304" type="line"/>
      <point x="157" y="203" type="line"/>
      <point x="492" y="203" type="line" smooth="yes"/>
      <point x="529" y="203"/>
      <point x="533" y="213"/>
      <point x="533" y="304" type="curve" smooth="yes"/>
      <point x="533" y="458"/>
      <point x="479" y="504"/>
      <point x="285" y="504" type="curve" smooth="yes"/>
    </contour>
    <contour>
      <point x="481" y="-4"/>
      <point x="523" y="23"/>
      <point x="523" y="144" type="curve" smooth="yes"/>
      <point x="523" y="153"/>
      <point x="516" y="160"/>
      <point x="507" y="160" type="curve" smooth="yes"/>
      <point x="415" y="160" type="line" smooth="yes"/>
      <point x="403" y="160"/>
      <point x="399" y="156"/>
      <point x="399" y="147" type="curve" smooth="yes"/>
      <point x="399" y="117"/>
      <point x="389" y="114"/>
      <point x="296" y="114" type="curve" smooth="yes"/>
      <point x="193" y="114"/>
      <point x="182" y="128"/>
      <point x="182" y="250" type="curve"/>
      <point x="50" y="250" type="line"/>
      <point x="50" y="54"/>
      <point x="106" y="-4"/>
      <point x="296" y="-4" type="curve" smooth="yes"/>
    </contour>
    <contour>
      <point x="148" y="720" type="line" smooth="yes"/>
      <point x="136" y="720"/>
      <point x="133" y="711"/>
      <point x="139" y="702" type="curve" smooth="yes"/>
      <point x="214" y="588" type="line" smooth="yes"/>
      <point x="218" y="581"/>
      <point x="224" y="579"/>
      <point x="232" y="579" type="curve" smooth="yes"/>
      <point x="363" y="579" type="line" smooth="yes"/>
      <point x="375" y="579"/>
      <point x="378" y="588"/>
      <point x="372" y="597" type="curve" smooth="yes"/>
      <point x="297" y="711" type="line" smooth="yes"/>
      <point x="293" y="718"/>
      <point x="287" y="720"/>
      <point x="279" y="720" type="curve" smooth="yes"/>
    </contour>
  </outline>
</glyph>
